NotoSansDisplay-LightItalic.ufo
<glyph name="afii10193" format="2">
  <advance width="526"/>
  <unicode hex="045F"/>
  <anchor x="160" y="-240" name="bottom"/>
  <anchor x="299" y="528" name="top"/>
  <anchor x="542" y="528" name="topright"/>
  <outline>
    <contour>
      <point x="146" y="-240" type="line"/>
      <point x="171" y="-240" type="line"/>
      <point x="214" y="-46" type="line"/>
      <point x="205" y="-46" type="line"/>
      <point x="188" y="-51" type="line"/>
    </contour>
    <component base="u"/>
  </outline>
</glyph>
<glyph name="uni1ABA" format="2">
  <unicode hex="1ABA"/>
  <anchor x="-25" y="90" name="_bottom"/>
  <anchor x="-93" y="-234" name="bottom"/>
  <outline>
    <contour>
      <point x="-140" y="-196" type="line"/>
      <point x="-118" y="-196" type="line"/>
      <point x="28" y="40" type="line"/>
      <point x="5" y="40" type="line"/>
    </contour>
    <contour>
      <point x="-135" y="-234" type="curve" smooth="yes"/>
      <point x="-116" y="-234"/>
      <point x="-106" y="-212"/>
      <point x="-106" y="-194" type="curve" smooth="yes"/>
      <point x="-106" y="-183"/>
      <point x="-112" y="-172"/>
      <point x="-127" y="-172" type="curve" smooth="yes"/>
      <point x="-147" y="-172"/>
      <point x="-157" y="-194"/>
      <point x="-157" y="-212" type="curve" smooth="yes"/>
      <point x="-157" y="-226"/>
      <point x="-148" y="-234"/>
    </contour>
  </outline>
</glyph>
<glyph name="LL-middleWelsh" format="2">
  <advance width="670"/>
  <unicode hex="1EFA"/>
  <anchor x="395" y="0" name="bottom"/>
  <anchor x="414" y="714" name="top"/>
  <anchor x="344" y="357" name="center"/>
  <anchor x="695" y="714" name="topright"/>
  <outline>
    <contour>
      <point x="49" y="0" type="line"/>
      <point x="74" y="0" type="line"/>
      <point x="228" y="714" type="line"/>
      <point x="202" y="714" type="line"/>
    </contour>
    <component base="L" xOffset="204"/>
  </outline>
</glyph>
<glyph name="parenrightsuperior" format="2">
  <advance width="219"/>
  <unicode hex="207E"/>
  <outline>
    <contour>
      <point x="30" y="225" type="curve"/>
      <point x="64" y="225" type="line"/>
      <point x="167" y="314"/>
      <point x="224" y="448"/>
      <point x="224" y="557" type="curve" smooth="yes"/>
      <point x="224" y="645"/>
      <point x="192" y="707"/>
      <point x="166" y="742" type="curve"/>
      <point x="140" y="742" type="line"/>
      <point x="178" y="693"/>
      <point x="199" y="625"/>
      <point x="199" y="559" type="curve" smooth="yes"/>
      <point x="199" y="430"/>
      <point x="126" y="300"/>
    </contour>
  </outline>
</glyph>
<glyph name="uni20A9" format="2">
  <advance width="561"/>
  <unicode hex="20A9"/>
  <outline>
    <contour>
      <point x="80" y="0" type="line"/>
      <point x="117" y="0" type="line"/>
      <point x="221" y="273" type="line"/>
      <point x="349" y="273" type="line"/>
      <point x="336" y="0" type="line"/>
      <point x="374" y="0" type="line"/>
      <point x="481" y="273" type="line"/>
      <point x="557" y="273" type="line"/>
      <point x="563" y="298" type="line"/>
      <point x="491" y="298" type="line"/>
      <point x="542" y="429" type="line"/>
      <point x="590" y="429" type="line"/>
      <point x="596" y="454" type="line"/>
      <point x="552" y="454" type="line"/>
      <point x="654" y="714" type="line"/>
      <point x="626" y="714" type="line"/>
      <point x="524" y="454" type="line"/>
      <point x="379" y="454" type="line"/>
      <point x="391" y="714" type="line"/>
      <point x="365" y="714" type="line"/>
      <point x="265" y="454" type="line"/>
      <point x="116" y="454" type="line"/>
      <point x="123" y="714" type="line"/>
      <point x="97" y="714" type="line"/>
      <point x="91" y="454" type="line"/>
      <point x="56" y="454" type="line"/>
      <point x="51" y="429" type="line"/>
      <point x="90" y="429" type="line"/>
      <point x="87" y="298" type="line"/>
      <point x="23" y="298" type="line"/>
      <point x="18" y="273" type="line"/>
      <point x="87" y="273" type="line"/>
    </contour>
    <contour>
      <point x="104" y="34" type="line"/>
      <point x="110" y="273" type="line"/>
      <point x="195" y="273" type="line"/>
    </contour>
    <contour>
      <point x="112" y="298" type="line"/>
      <point x="115" y="429" type="line"/>
      <point x="255" y="429" type="line"/>
      <point x="205" y="298" type="line"/>
    </contour>
    <contour>
      <point x="360" y="29" type="line"/>
      <point x="372" y="273" type="line"/>
      <point x="454" y="273" type="line"/>
    </contour>
    <contour>
      <point x="230" y="298" type="line"/>
      <point x="281" y="429" type="line"/>
      <point x="355" y="429" type="line"/>
      <point x="349" y="298" type="line"/>
    </contour>
    <contour>
      <point x="372" y="298" type="line"/>
      <point x="378" y="429" type="line"/>
      <point x="514" y="429" type="line"/>
      <point x="464" y="298" type="line"/>
    </contour>
    <contour>
      <point x="290" y="454" type="line"/>
      <point x="366" y="653" type="line"/>
      <point x="357" y="454" type="line"/>
    </contour>
  </outline>
</glyph>
<glyph name="uni2C65" format="2">
  <advance width="520"/>
  <unicode hex="2C65"/>
  <anchor x="153" y="-208" name="bottom"/>
  <anchor x="368" y="760" name="top"/>
  <anchor x="530" y="528" name="topright"/>
  <outline>
    <contour>
      <point x="4" y="-208" type="line"/>
      <point x="30" y="-208" type="line"/>
      <point x="515" y="760" type="line"/>
      <point x="489" y="760" type="line"/>
    </contour>
    <component base="a"/>
  </outline>
</glyph>
<glyph name="uniA65C" format="2">
  <advance width="738"/>
  <unicode hex="A65C"/>
  <outline>
    <contour>
      <point x="235" y="0" type="line"/>
      <point x="644" y="0" type="line"/>
      <point x="649" y="25" type="line"/>
      <point x="240" y="25" type="line"/>
    </contour>
    <component base="uniA656"/>
  </outline>
</glyph>
<glyph name="uniA666" format="2">
  <advance width="899"/>
  <unicode hex="A666"/>
  <anchor x="330" y="0" name="bottom"/>
  <anchor x="481" y="714" name="top"/>
  <anchor x="846" y="714" name="topright"/>
  <outline>
    <contour>
      <point x="761" y="689" type="line"/>
      <point x="988" y="689" type="line"/>
      <point x="993" y="714" type="line"/>
      <point x="735" y="714" type="line"/>
    </contour>
    <component base="M"/>
  </outline>
</glyph>
<glyph name="uniA69E" format="2">
  <unicode hex="A69E"/>
  <outline>
    <contour>
      <point x="-43" y="128" type="line"/>
      <point x="-19" y="128" type="line"/>
      <point x="14" y="272" type="line"/>
      <point x="143" y="270"/>
      <point x="201" y="377"/>
      <point x="201" y="474" type="curve" smooth="yes"/>
      <point x="201" y="561"/>
      <point x="156" y="599"/>
      <point x="88" y="605" type="curve"/>
      <point x="119" y="743" type="line"/>
      <point x="93" y="743" type="line"/>
      <point x="62" y="605" type="line"/>
      <point x="-66" y="602"/>
      <point x="-122" y="501"/>
      <point x="-122" y="405" type="curve" smooth="yes"/>
      <point x="-122" y="327"/>
      <point x="-82" y="280"/>
      <point x="-11" y="273" type="curve"/>
    </contour>
    <contour>
      <point x="-5" y="298" type="line"/>
      <point x="-52" y="300"/>
      <point x="-95" y="330"/>
      <point x="-95" y="408" type="curve" smooth="yes"/>
      <point x="-95" y="477"/>
      <point x="-59" y="581"/>
      <point x="59" y="581" type="curve"/>
    </contour>
    <contour>
      <point x="20" y="296" type="curve"/>
      <point x="83" y="580" type="line"/>
      <point x="134" y="579"/>
      <point x="175" y="548"/>
      <point x="175" y="472" type="curve" smooth="yes"/>
      <point x="175" y="409"/>
      <point x="143" y="296"/>
    </contour>
  </outline>
</glyph>
<glyph name="uniA742" format="2">
  <advance width="516"/>
  <unicode hex="A742"/>
  <anchor x="216" y="0" name="bottom"/>
  <anchor x="368" y="714" name="top"/>
  <anchor x="596" y="714" name="topright"/>
  <outline>
    <contour>
      <point x="251" y="150" type="line"/>
      <point x="472" y="310" type="line"/>
      <point x="457" y="330" type="line"/>
      <point x="236" y="170" type="line"/>
    </contour>
    <component base="K"/>
  </outline>
</glyph>
<glyph name="uniA768" format="2">
  <advance width="379"/>
  <unicode hex="A768"/>
  <outline>
    <contour>
      <point x="-61" y="-240" type="line"/>
      <point x="112" y="-240" type="line"/>
      <point x="116" y="-221" type="line"/>
      <point x="43" y="-218" type="line"/>
      <point x="86" y="-15" type="line"/>
      <point x="458" y="714" type="line"/>
      <point x="430" y="714" type="line"/>
      <point x="200" y="261" type="line" smooth="yes"/>
      <point x="150" y="163"/>
      <point x="123" y="107"/>
      <point x="105" y="67" type="curve"/>
      <point x="104" y="67" type="line"/>
      <point x="116" y="122"/>
      <point x="127" y="177"/>
      <point x="147" y="268" type="curve" smooth="yes"/>
      <point x="238" y="691" type="line"/>
      <point x="311" y="695" type="line"/>
      <point x="315" y="714" type="line"/>
      <point x="141" y="714" type="line"/>
      <point x="137" y="696" type="line"/>
      <point x="210" y="691" type="line"/>
      <point x="17" y="-218" type="line"/>
      <point x="-57" y="-221" type="line"/>
    </contour>
  </outline>
</glyph>
<glyph name="uniA776" format="2">
  <advance width="579"/>
  <unicode hex="A776"/>
  <anchor x="148" y="0" name="bottom"/>
  <anchor x="260" y="528" name="top"/>
  <outline>
    <contour>
      <point x="312" y="-145" type="line"/>
      <point x="341" y="-145" type="line"/>
      <point x="523" y="164" type="line"/>
      <point x="495" y="164" type="line"/>
    </contour>
    <contour>
      <point x="320" y="0" type="line"/>
      <point x="523" y="0" type="line"/>
      <point x="528" y="25" type="line"/>
      <point x="326" y="25" type="line"/>
    </contour>
    <component base="uni0280" xOffset="4"/>
  </outline>
</glyph>
<glyph name="uniA781" format="2">
  <advance width="198"/>
  <unicode hex="A781"/>
  <outline>
    <contour>
      <point x="-18" y="-232" type="line"/>
      <point x="8" y="-232" type="line"/>
      <point x="170" y="537" type="line"/>
      <point x="144" y="537" type="line"/>
    </contour>
  </outline>
</glyph>
<glyph name="uniA795" format="2">
  <advance width="552"/>
  <unicode hex="A795"/>
  <anchor x="183" y="-179" name="bottom"/>
  <anchor x="382" y="760" name="top"/>
  <anchor x="267" y="264" name="center"/>
  <anchor x="546" y="760" name="topright"/>
  <outline>
    <contour>
      <point x="300" y="-179" type="curve" smooth="yes"/>
      <point x="356" y="-179"/>
      <point x="383" y="-148"/>
      <point x="395" y="-94" type="curve" smooth="yes"/>
      <point x="421" y="25" type="line"/>
      <point x="390" y="25" type="line"/>
      <point x="390" y="0" type="line" smooth="yes"/>
      <point x="369" y="-94" type="line" smooth="yes"/>
      <point x="360" y="-134"/>
      <point x="341" y="-155"/>
      <point x="303" y="-155" type="curve" smooth="yes"/>
      <point x="286" y="-155"/>
      <point x="270" y="-151"/>
      <point x="260" y="-146" type="curve"/>
      <point x="255" y="-170" type="line"/>
      <point x="263" y="-174"/>
      <point x="280" y="-179"/>
    </contour>
    <component base="h"/>
  </outline>
</glyph>
<glyph name="uniA7A4" format="2">
  <advance width="641"/>
  <unicode hex="A7A4"/>
  <anchor x="265" y="0" name="bottom"/>
  <anchor x="417" y="714" name="top"/>
  <anchor x="719" y="714" name="topright"/>
  <outline>
    <contour>
      <point x="16" y="303" type="line"/>
      <point x="673" y="445" type="line"/>
      <point x="682" y="470" type="line"/>
      <point x="24" y="329" type="line"/>
    </contour>
    <component base="N" xOffset="-2"/>
  </outline>
</glyph>
<glyph name="uniA7AE" format="2">
  <advance width="475"/>
  <unicode hex="A7AE"/>
  <anchor x="182" y="0" name="bottom"/>
  <anchor x="334" y="714" name="top"/>
  <outline>
    <contour>
      <point x="524" y="714" type="line"/>
      <point x="143" y="714" type="line"/>
      <point x="138" y="694" type="line"/>
      <point x="316" y="690" type="line"/>
      <point x="174" y="24" type="line"/>
      <point x="-5" y="20" type="line"/>
      <point x="-9" y="0" type="line"/>
      <point x="372" y="0" type="line"/>
      <point x="376" y="20" type="line"/>
      <point x="200" y="24" type="line"/>
      <point x="342" y="690" type="line"/>
      <point x="519" y="694" type="line"/>
    </contour>
  </outline>
</glyph>
<glyph name="uniA7FB" format="2">
  <advance width="463"/>
  <unicode hex="A7FB"/>
  <outline>
    <contour>
      <point x="287" y="0" type="line"/>
      <point x="314" y="0" type="line"/>
      <point x="466" y="714" type="line"/>
      <point x="139" y="714" type="line"/>
      <point x="134" y="689" type="line"/>
      <point x="433" y="689" type="line"/>
      <point x="363" y="356" type="line"/>
      <point x="84" y="356" type="line"/>
      <point x="79" y="331" type="line"/>
      <point x="357" y="331" type="line"/>
    </contour>
  </outline>
</glyph>
<glyph name="uniA7FC" format="2">
  <advance width="529"/>
  <unicode hex="A7FC"/>
  <outline>
    <contour>
      <point x="353" y="0" type="line"/>
      <point x="380" y="0" type="line"/>
      <point x="532" y="714" type="line"/>
      <point x="380" y="714" type="line" smooth="yes"/>
      <point x="246" y="714"/>
      <point x="128" y="641"/>
      <point x="128" y="471" type="curve" smooth="yes"/>
      <point x="128" y="359"/>
      <point x="194" y="305"/>
      <point x="306" y="305" type="curve" smooth="yes"/>
      <point x="418" y="305" type="line"/>
    </contour>
    <contour>
      <point x="307" y="330" type="line" smooth="yes"/>
      <point x="205" y="330"/>
      <point x="155" y="384"/>
      <point x="155" y="471" type="curve" smooth="yes"/>
      <point x="155" y="618"/>
      <point x="251" y="689"/>
      <point x="379" y="689" type="curve"/>
      <point x="499" y="689" type="line"/>
      <point x="423" y="330" type="line"/>
    </contour>
  </outline>
</glyph>
<glyph name="uniFE22" format="2">
  <unicode hex="FE22"/>
  <outline>
    <contour>
      <point x="-245" y="604" type="curve"/>
      <point x="-222" y="604" type="line"/>
      <point x="-201" y="642"/>
      <point x="-174" y="678"/>
      <point x="-81" y="678" type="curve" smooth="yes"/>
      <point x="-20" y="678"/>
      <point x="41" y="662"/>
      <point x="86" y="647" type="curve"/>
      <point x="87" y="675" type="line"/>
      <point x="33" y="691"/>
      <point x="-8" y="704"/>
      <point x="-71" y="704" type="curve" smooth="yes"/>
      <point x="-155" y="704"/>
      <point x="-212" y="682"/>
    </contour>
  </outline>
</glyph>
<glyph name="lslash.sc" format="2">
  <advance width="344"/>
  <anchor x="133" y="0" name="bottom"/>
  <anchor x="153" y="559" name="top"/>
  <anchor x="97" y="280" name="center"/>
  <anchor x="323" y="559" name="topright"/>
  <outline>
    <contour>
      <point x="-9" y="199" type="line"/>
      <point x="228" y="331" type="line"/>
      <point x="218" y="350" type="line"/>
      <point x="-19" y="218" type="line"/>
    </contour>
    <component base="l.sc"/>
  </outline>
</glyph>
<glyph name="uni0268dotless" format="2">
  <advance width="207"/>
  <anchor x="43" y="0" name="bottom"/>
  <anchor x="155" y="528" name="top"/>
  <outline>
    <contour>
      <point x="11" y="261" type="line"/>
      <point x="187" y="261" type="line"/>
      <point x="193" y="286" type="line"/>
      <point x="17" y="286" type="line"/>
    </contour>
    <component base="idotless"/>
  </outline>
</glyph>
